<?xml version="1.0" standalone="no"?><svg xmlns="http://www.w3.org/2000/svg" viewBox="0 0 1440 320"><path fill="#e63d8e" fill-opacity="1" d="M0,128L24,144C48,160,96,192,144,202.7C192,213,240,203,288,202.7C336,203,384,213,432,197.3C480,181,528,139,576,149.3C624,160,672,224,720,234.7C768,245,816,203,864,181.3C912,160,960,160,1008,186.7C1056,213,1104,267,1152,272C1200,277,1248,235,1296,197.3C1344,160,1392,128,1416,112L1440,96L1440,320L1416,320C1392,320,1344,320,1296,320C1248,320,1200,320,1152,320C1104,320,1056,320,1008,320C960,320,912,320,864,320C816,320,768,320,720,320C672,320,624,320,576,320C528,320,480,320,432,320C384,320,336,320,288,320C240,320,192,320,144,320C96,320,48,320,24,320L0,320Z"></path></svg>